<svg xmlns="http://www.w3.org/2000/svg" viewBox="0 0 60 60" fill="none">
  <!-- Simplified Fleur-de-lis Favicon Emblem -->
  <!-- Center petal -->
  <path d="M30 10 C28 18, 24 25, 18 28 C22 31, 28 38, 30 45 C32 38, 38 31, 42 28 C36 25, 32 18, 30 10 Z" fill="url(#gold-grad)"/>
  <!-- Left petal -->
  <path d="M30 31 C22 31, 15 25, 12 18 C10 28, 15 38, 25 41 C27 35, 28 32, 30 31 Z" fill="url(#gold-grad)"/>
  <!-- Right petal -->
  <path d="M30 31 C38 31, 45 25, 48 18 C50 28, 45 38, 35 41 C33 35, 32 32, 30 31 Z" fill="url(#gold-grad)"/>
  <!-- Horizontal band -->
  <path d="M18 43 L42 43 C42 43, 38 47, 30 47 C22 47, 18 43, 18 43 Z" fill="#8A6E2F"/>
  <!-- Bottom base -->
  <path d="M30 49 C26 54, 21 57, 17 58 C23 60, 37 60, 43 58 C39 57, 34 54, 30 49 Z" fill="url(#gold-grad)"/>

  <!-- Gradient definition -->
  <defs>
    <linearGradient id="gold-grad" x1="0%" y1="0%" x2="100%" y2="100%">
      <stop offset="0%" stop-color="#C9A84C" />
      <stop offset="50%" stop-color="#E2C572" />
      <stop offset="100%" stop-color="#8A6E2F" />
    </linearGradient>
  </defs>
</svg>
